<?xml version="1.0" standalone="no"?>
<!DOCTYPE svg PUBLIC "-//W3C//DTD SVG 20010904//EN"
 "http://www.w3.org/TR/2001/REC-SVG-20010904/DTD/svg10.dtd">
<svg version="1.0" xmlns="http://www.w3.org/2000/svg"
 width="512.000000pt" height="512.000000pt" viewBox="0 0 512.000000 512.000000"
 preserveAspectRatio="xMidYMid meet">
<metadata>
Created by potrace 1.11, written by Peter Selinger 2001-2013
</metadata>
<g transform="translate(0.000000,512.000000) scale(0.100000,-0.100000)"
fill="#000000" stroke="none">
<path d="M710 4054 c-35 -15 -70 -60 -70 -91 0 -37 26 -90 52 -104 17 -10 90
-14 289 -14 146 -1 270 -5 277 -9 7 -4 12 -14 12 -22 0 -8 5 -22 10 -32 6 -9
69 -172 141 -362 71 -190 155 -410 185 -490 30 -80 67 -176 81 -215 14 -38 31
-83 38 -100 7 -16 34 -86 60 -155 25 -69 56 -147 67 -175 11 -27 21 -54 23
-60 1 -5 5 -17 8 -25 4 -8 31 -78 60 -155 l54 -140 -49 -24 c-62 -30 -144
-113 -181 -180 -130 -242 0 -549 266 -626 105 -30 204 -21 312 30 218 103 308
373 197 591 -12 23 -43 66 -71 96 l-49 54 419 0 c230 0 419 -1 419 -1 0 -1
-19 -22 -43 -47 -86 -91 -126 -195 -122 -315 4 -135 64 -252 171 -333 183
-139 442 -115 592 56 127 144 144 370 39 524 -61 89 -157 158 -249 180 -26 7
-48 17 -49 23 -4 66 -34 118 -74 126 -11 3 -320 5 -687 5 l-667 1 -30 80 c-17
43 -27 82 -22 85 14 8 946 5 959 -4 7 -4 12 -4 12 1 0 4 121 8 270 7 240 -1
273 1 298 16 21 13 83 112 222 351 296 512 312 539 323 539 6 0 7 3 4 7 -4 3
2 20 12 37 11 17 28 48 40 69 45 79 66 116 142 248 44 76 79 147 79 162 0 37
-17 69 -48 92 -26 19 -44 20 -494 20 -258 0 -468 4 -468 8 0 5 -6 5 -12 0 -17
-10 -388 -11 -388 0 0 4 -6 5 -12 0 -17 -10 -388 -11 -388 0 0 4 -6 5 -12 0
-7 -4 -167 -8 -355 -8 -330 0 -343 -1 -370 -21 -77 -57 -60 -169 29 -192 16
-4 437 -7 937 -7 574 1 908 -3 904 -9 -4 -5 -1 -6 8 0 18 11 359 13 359 2 0
-4 -27 -53 -60 -109 -33 -55 -60 -103 -60 -105 0 -2 -10 -21 -23 -42 -13 -20
-37 -62 -54 -92 -17 -30 -54 -95 -83 -145 -29 -49 -62 -106 -73 -125 -165
-293 -262 -457 -273 -466 -11 -9 -222 -12 -768 -12 l-754 0 -25 67 c-26 66
-126 331 -194 511 -19 52 -39 104 -44 115 -9 21 -113 294 -136 358 -7 21 -10
43 -7 49 4 6 3 8 -2 5 -6 -3 -23 29 -38 71 -32 86 -103 276 -116 307 -4 11
-13 34 -20 51 -6 17 -25 41 -42 54 -29 22 -35 22 -345 23 -216 2 -324 -2 -343
-9z m1547 -2368 c68 -35 113 -112 113 -193 -1 -191 -234 -287 -370 -152 -150
148 -19 404 187 367 24 -4 55 -14 70 -22z m1373 1 c60 -32 98 -82 112 -149 37
-177 -144 -317 -308 -237 -81 39 -133 134 -121 221 10 74 68 149 137 177 47
18 133 13 180 -12z"/>
</g>
</svg>
