<?xml version="1.0" standalone="no"?>
<!DOCTYPE svg PUBLIC "-//W3C//DTD SVG 20010904//EN"
 "http://www.w3.org/TR/2001/REC-SVG-20010904/DTD/svg10.dtd">
<svg version="1.0" xmlns="http://www.w3.org/2000/svg"
 width="256.000000pt" height="256.000000pt" viewBox="0 0 256.000000 256.000000"
 preserveAspectRatio="xMidYMid meet">
<metadata>
Created by potrace 1.11, written by Peter Selinger 2001-2013
</metadata>
<g transform="translate(0.000000,256.000000) scale(0.100000,-0.100000)"
fill="#000000" stroke="none">
<path d="M1417 2387 c-37 -21 -67 -68 -67 -107 0 -11 14 -53 30 -92 29 -68 30
-75 19 -127 -6 -31 -15 -60 -19 -66 -7 -9 -22 -66 -21 -80 0 -2 -6 -20 -14
-39 -8 -20 -15 -45 -15 -57 0 -38 -30 -123 -52 -150 l-22 -27 -26 27 c-68 67
-103 80 -155 56 -66 -32 -85 -110 -39 -164 30 -36 23 -58 -30 -89 -30 -18 -60
-60 -126 -180 -8 -15 -36 -58 -61 -97 -26 -38 -54 -88 -63 -110 -31 -74 -108
-135 -171 -135 -14 0 -25 -5 -25 -11 0 -7 18 -10 50 -7 47 3 49 2 30 -12 -26
-20 -16 -32 17 -19 31 12 46 12 38 0 -13 -22 14 -18 34 5 20 23 22 24 46 8 18
-12 28 -13 42 -5 17 10 16 11 -4 17 -17 5 -23 14 -23 35 0 53 30 106 89 157
31 27 65 67 75 88 9 22 29 47 43 58 25 19 25 19 48 -10 12 -16 32 -54 43 -85
22 -62 23 -61 -33 -107 -13 -11 -20 -41 -16 -66 5 -24 -11 -55 -32 -62 -12 -4
-68 -53 -123 -109 -56 -57 -111 -106 -123 -110 -12 -3 -21 -10 -21 -15 0 -4
-17 -16 -37 -25 -106 -50 -313 -216 -313 -251 0 -8 -9 -14 -19 -14 -11 0 -23
-4 -26 -10 -11 -18 -24 -11 -31 16 -5 18 -9 22 -14 13 -5 -7 -4 -23 1 -36 12
-32 12 -33 -6 -33 -8 0 -15 -5 -15 -11 0 -12 -54 -36 -101 -44 -34 -6 -79 -30
-79 -42 0 -3 9 -20 20 -39 23 -36 67 -52 99 -35 11 6 37 11 59 11 40 0 51 8
140 104 24 26 76 56 98 56 7 0 37 20 66 44 30 25 93 67 140 95 47 28 99 61
114 74 16 13 61 38 99 57 39 18 93 47 120 63 28 16 73 42 102 58 l51 28 74
-25 c40 -14 112 -41 160 -60 47 -18 118 -40 156 -48 73 -15 112 -36 223 -117
37 -27 70 -49 75 -49 4 0 34 -18 65 -40 32 -22 63 -40 71 -40 20 0 117 -99
139 -143 11 -20 23 -37 27 -37 5 0 26 15 48 33 21 18 53 42 70 52 34 22 86 67
122 107 l24 26 -21 12 c-18 9 -28 7 -56 -10 -32 -20 -137 -31 -152 -16 -3 3 8
19 26 35 35 33 22 35 -27 4 -28 -17 -38 -19 -63 -10 -16 6 -29 19 -29 28 0 9
-12 25 -27 34 -15 10 -59 44 -99 77 -89 72 -262 188 -280 188 -7 0 -32 18 -56
40 -24 22 -78 58 -121 81 -57 30 -77 45 -73 56 4 9 -8 29 -31 51 -29 29 -37
44 -36 72 0 19 2 80 3 135 2 88 0 107 -23 160 -35 84 -41 132 -21 186 8 24 17
65 19 91 2 26 10 71 19 100 8 29 16 64 18 78 2 14 9 35 16 47 10 19 26 176 24
250 0 18 8 25 38 33 40 11 89 58 91 88 4 46 -1 76 -15 98 -39 58 -109 75 -169
41z"/>
</g>
</svg>
