<?xml version="1.0" standalone="no"?>
<!DOCTYPE svg PUBLIC "-//W3C//DTD SVG 20010904//EN"
 "http://www.w3.org/TR/2001/REC-SVG-20010904/DTD/svg10.dtd">
<svg version="1.0" xmlns="http://www.w3.org/2000/svg"
 width="256.000000pt" height="256.000000pt" viewBox="0 0 256.000000 256.000000"
 preserveAspectRatio="xMidYMid meet">
<metadata>
Created by potrace 1.11, written by Peter Selinger 2001-2013
</metadata>
<g transform="translate(0.000000,256.000000) scale(0.100000,-0.100000)"
fill="#000000" stroke="none">
<path d="M686 2023 c-16 -16 -4 -54 24 -74 16 -12 26 -27 23 -33 -3 -6 -3 -8
1 -4 5 4 24 -1 42 -11 22 -12 47 -17 68 -14 l33 4 21 -73 c12 -40 22 -76 22
-79 0 -8 -320 -582 -328 -589 -4 -3 -8 -12 -10 -20 -6 -28 -32 -60 -50 -60
-23 0 -40 -29 -35 -60 7 -47 49 -65 93 -40 37 22 359 24 367 3 8 -20 -23 -117
-52 -169 -44 -75 -168 -176 -196 -158 -7 4 -9 3 -6 -3 7 -12 -68 -33 -129 -37
-131 -9 -275 60 -354 170 -108 151 -99 362 23 509 36 44 145 118 163 111 7 -3
14 -1 16 4 7 21 158 33 223 17 27 -7 32 -4 48 22 l17 30 -57 12 c-120 24 -274
-6 -372 -75 -49 -34 -111 -95 -111 -109 0 -4 -5 -5 -12 -1 -7 5 -8 3 -4 -5 5
-7 1 -20 -7 -29 -9 -9 -27 -53 -42 -96 -84 -251 47 -511 305 -605 51 -19 196
-22 256 -6 154 40 270 142 327 285 14 36 28 83 32 106 6 36 9 41 34 42 19 0
38 -9 55 -27 27 -28 27 -30 10 -91 0 -3 -4 -24 -9 -47 -4 -24 -11 -44 -16 -44
-5 -1 -15 -2 -21 -3 -7 0 -13 -14 -13 -31 l0 -30 60 0 c58 0 60 1 63 27 2 20
-2 28 -18 33 -12 4 -19 12 -17 18 2 7 10 38 17 70 11 46 18 59 36 63 38 10 68
50 68 93 1 40 21 75 39 64 5 -3 7 -2 4 4 -4 6 7 25 24 44 16 19 58 65 92 104
34 38 83 92 108 120 25 27 63 70 85 94 51 58 53 59 96 108 l36 41 25 -73 24
-74 -51 -34 c-147 -98 -225 -244 -220 -412 3 -119 36 -205 114 -297 137 -165
373 -212 577 -116 66 31 173 140 208 211 120 248 12 538 -242 650 -56 25 -85
31 -166 35 l-98 5 13 -32 c13 -31 15 -32 83 -36 77 -4 132 -21 200 -60 75 -44
156 -146 167 -210 1 -11 8 -23 13 -27 6 -4 10 -53 10 -111 -1 -100 -2 -107
-38 -180 -154 -312 -591 -308 -739 8 -54 117 -48 269 17 380 33 56 110 129
126 120 7 -5 10 -4 5 3 -7 12 29 36 43 28 5 -3 12 -18 16 -33 7 -32 77 -200
106 -257 11 -22 18 -48 16 -58 -3 -10 3 -28 13 -40 15 -20 21 -21 44 -10 34
15 35 54 2 79 -29 22 -76 153 -176 488 -38 127 -75 251 -83 278 -8 26 -12 48
-9 48 4 1 35 2 69 3 42 2 60 -1 56 -8 -5 -8 -2 -8 8 0 15 11 100 12 135 0 49
-15 50 -97 2 -122 -16 -8 -32 -13 -36 -10 -9 9 -32 -15 -32 -34 0 -53 80 -50
134 5 64 64 57 161 -17 216 -31 23 -37 24 -211 24 -215 0 -211 2 -179 -102 12
-37 24 -77 27 -89 6 -20 4 -20 -354 -20 l-361 0 -30 99 c-35 110 -34 112 31
123 62 10 85 20 88 39 2 10 -2 21 -10 26 -15 9 -383 11 -392 2z m1029 -364 c2
-2 -27 -37 -63 -76 -37 -40 -78 -86 -92 -102 -24 -28 -143 -160 -185 -205 -11
-12 -51 -56 -88 -99 -38 -42 -73 -77 -78 -77 -15 0 -27 33 -84 222 -107 349
-103 337 -87 340 23 4 672 1 677 -3z m-706 -204 c34 -110 73 -236 87 -279 21
-65 23 -84 14 -106 l-11 -27 -245 -1 c-134 0 -244 2 -244 5 0 6 69 134 128
236 l44 78 27 -23 c53 -46 82 -84 112 -145 17 -34 28 -66 24 -72 -7 -12 -5
-12 40 -15 27 -1 30 1 27 28 -8 73 -105 217 -179 268 l-23 15 67 121 c37 67
67 121 69 119 1 -1 29 -92 63 -202z"/>
<path d="M1182 1298 c2 -19 8 -28 19 -28 12 0 16 -9 15 -37 -1 -28 3 -38 16
-41 12 -2 19 6 24 32 6 33 17 42 47 37 7 -1 8 4 10 42 1 21 -3 22 -66 22 l-67
1 2 -28z"/>
</g>
</svg>
