<?xml version="1.0" standalone="no"?>
<!DOCTYPE svg PUBLIC "-//W3C//DTD SVG 20010904//EN"
 "http://www.w3.org/TR/2001/REC-SVG-20010904/DTD/svg10.dtd">
<svg version="1.0" xmlns="http://www.w3.org/2000/svg"
 width="2400.000000pt" height="2400.000000pt" viewBox="0 0 2400.000000 2400.000000"
 preserveAspectRatio="xMidYMid meet">
<metadata>
Created by potrace 1.11, written by Peter Selinger 2001-2013
</metadata>
<g transform="translate(0.000000,2400.000000) scale(0.100000,-0.100000)"
fill="#000000" stroke="none">
<path d="M16148 23720 c-240 -43 -168 -20 -2088 -655 -442 -146 -7596 -2507
-10215 -3370 -871 -288 -902 -298 -1008 -351 -297 -149 -488 -334 -583 -567
-53 -132 -67 -212 -67 -382 -1 -135 3 -168 37 -330 35 -169 536 -2501 2350
-10940 421 -1958 860 -4001 976 -4540 115 -539 219 -1009 231 -1045 96 -303
427 -412 1004 -329 219 31 53 -12 2640 686 561 151 3502 942 6535 1758 3033
816 5560 1498 5615 1516 829 260 1089 636 941 1361 -29 139 -4055 15463 -4097
15591 -90 277 -221 457 -393 541 -75 37 -195 66 -269 66 l-45 0 34 -62 c31
-58 33 -68 28 -123 -5 -49 0 -83 26 -180 17 -66 36 -138 42 -160 5 -22 101
-389 213 -815 112 -426 740 -2813 1395 -5305 655 -2491 1204 -4579 1220 -4640
17 -60 151 -571 299 -1135 149 -564 286 -1086 306 -1160 21 -74 41 -148 45
-165 4 -16 39 -147 78 -290 82 -304 193 -716 298 -1110 41 -154 78 -293 84
-310 28 -89 122 -475 134 -554 100 -614 -134 -952 -819 -1187 -151 -52 -493
-149 -1080 -305 -60 -16 -139 -38 -175 -48 -57 -16 -2251 -609 -2520 -681 -58
-15 -166 -44 -240 -64 -74 -20 -192 -52 -263 -71 -239 -65 -382 -103 -482
-129 -55 -15 -131 -36 -170 -46 -58 -17 -3597 -969 -3935 -1060 -99 -26 -212
-57 -500 -134 -211 -57 -380 -103 -485 -130 -55 -15 -131 -36 -170 -46 -38
-11 -716 -193 -1505 -405 -789 -212 -1466 -395 -1505 -405 -100 -29 -533 -145
-815 -219 -208 -55 -355 -62 -510 -24 -177 43 -326 149 -433 308 -47 71 -86
115 -102 115 -11 0 -45 92 -45 123 0 19 115 80 230 121 93 34 -329 -80 7380
1995 3556 957 6497 1750 6535 1762 39 12 120 41 181 64 663 256 871 611 743
1270 -10 55 -120 487 -245 960 -2011 7660 -3829 14570 -3854 14645 -112 343
-275 529 -516 590 -103 27 -314 26 -466 0z"/>
</g>
</svg>
